<?xml version="1.0" encoding="UTF-8" standalone="no"?>
<!DOCTYPE svg PUBLIC "-//W3C//DTD SVG 1.0//EN" "http://www.w3.org/TR/2001/PR-SVG-20010719/DTD/svg10.dtd">
<svg viewBox="18 59 803 482" xmlns="http://www.w3.org/2000/svg" xmlns:xlink="http://www.w3.org/1999/xlink">
  <g>
    <rect style="fill: #d8e5e5" x="28" y="76.8334" width="784" height="40.8235"/>
    <path style="fill: #d8e5e5" d="M 28,76.8334 A 8,8 0 0 0 20,84.8334 L 28,84.8334 z"/>
    <path style="fill: #d8e5e5" d="M 820,84.8334 A 8,8 0 0 0 812,76.8334 L 812,84.8334 z"/>
    <rect style="fill: #d8e5e5" x="20" y="84.8334" width="800" height="24.8235"/>
    <path style="fill: #d8e5e5" d="M 20,109.657 A 8,8 0 0 0 28,117.657 L 28,109.657 z"/>
    <path style="fill: #d8e5e5" d="M 812,117.657 A 8,8 0 0 0 820,109.657 L 812,109.657 z"/>
    <line style="fill: none; fill-opacity:0; stroke-width: 2; stroke: #bfbfbf" x1="28" y1="76.8334" x2="812" y2="76.8334"/>
    <line style="fill: none; fill-opacity:0; stroke-width: 2; stroke: #bfbfbf" x1="28" y1="117.657" x2="812" y2="117.657"/>
    <path style="fill: none; fill-opacity:0; stroke-width: 2; stroke: #bfbfbf" d="M 28,76.8334 A 8,8 0 0 0 20,84.8334"/>
    <path style="fill: none; fill-opacity:0; stroke-width: 2; stroke: #bfbfbf" d="M 820,84.8334 A 8,8 0 0 0 812,76.8334"/>
    <line style="fill: none; fill-opacity:0; stroke-width: 2; stroke: #bfbfbf" x1="20" y1="84.8334" x2="20" y2="109.657"/>
    <line style="fill: none; fill-opacity:0; stroke-width: 2; stroke: #bfbfbf" x1="820" y1="84.8334" x2="820" y2="109.657"/>
    <path style="fill: none; fill-opacity:0; stroke-width: 2; stroke: #bfbfbf" d="M 20,109.657 A 8,8 0 0 0 28,117.657"/>
    <path style="fill: none; fill-opacity:0; stroke-width: 2; stroke: #bfbfbf" d="M 812,117.657 A 8,8 0 0 0 820,109.657"/>
    <text font-size="16.9333" style="fill: #000000;text-anchor:start;font-family:sans-serif;font-style:normal;font-weight:normal" x="19" y="102.412">
      <tspan x="19" y="102.412">    0 months: 1</tspan>
    </text>
  </g>
  <g>
    <rect style="fill: #d8e5e5" x="28" y="160" width="784" height="43.1667"/>
    <path style="fill: #d8e5e5" d="M 28,160 A 8,8 0 0 0 20,168 L 28,168 z"/>
    <path style="fill: #d8e5e5" d="M 820,168 A 8,8 0 0 0 812,160 L 812,168 z"/>
    <rect style="fill: #d8e5e5" x="20" y="168" width="800" height="27.1667"/>
    <path style="fill: #d8e5e5" d="M 20,195.167 A 8,8 0 0 0 28,203.167 L 28,195.167 z"/>
    <path style="fill: #d8e5e5" d="M 812,203.167 A 8,8 0 0 0 820,195.167 L 812,195.167 z"/>
    <line style="fill: none; fill-opacity:0; stroke-width: 2; stroke: #bfbfbf" x1="28" y1="160" x2="812" y2="160"/>
    <line style="fill: none; fill-opacity:0; stroke-width: 2; stroke: #bfbfbf" x1="28" y1="203.167" x2="812" y2="203.167"/>
    <path style="fill: none; fill-opacity:0; stroke-width: 2; stroke: #bfbfbf" d="M 28,160 A 8,8 0 0 0 20,168"/>
    <path style="fill: none; fill-opacity:0; stroke-width: 2; stroke: #bfbfbf" d="M 820,168 A 8,8 0 0 0 812,160"/>
    <line style="fill: none; fill-opacity:0; stroke-width: 2; stroke: #bfbfbf" x1="20" y1="168" x2="20" y2="195.167"/>
    <line style="fill: none; fill-opacity:0; stroke-width: 2; stroke: #bfbfbf" x1="820" y1="168" x2="820" y2="195.167"/>
    <path style="fill: none; fill-opacity:0; stroke-width: 2; stroke: #bfbfbf" d="M 20,195.167 A 8,8 0 0 0 28,203.167"/>
    <path style="fill: none; fill-opacity:0; stroke-width: 2; stroke: #bfbfbf" d="M 812,203.167 A 8,8 0 0 0 820,195.167"/>
    <text font-size="16.9333" style="fill: #000000;text-anchor:start;font-family:sans-serif;font-style:normal;font-weight:normal" x="19" y="186.75">
      <tspan x="19" y="186.75">    1 months: 1</tspan>
    </text>
  </g>
  <image x="580" y="60" width="100" height="80" xlink:href="file:///home/mic/Desktop/didattica/fondinfo-2013/images/happy-tree-friends.svg"/>
  <g>
    <rect style="fill: #d8e5e5" x="28" y="240" width="784" height="43.1667"/>
    <path style="fill: #d8e5e5" d="M 28,240 A 8,8 0 0 0 20,248 L 28,248 z"/>
    <path style="fill: #d8e5e5" d="M 820,248 A 8,8 0 0 0 812,240 L 812,248 z"/>
    <rect style="fill: #d8e5e5" x="20" y="248" width="800" height="27.1667"/>
    <path style="fill: #d8e5e5" d="M 20,275.167 A 8,8 0 0 0 28,283.167 L 28,275.167 z"/>
    <path style="fill: #d8e5e5" d="M 812,283.167 A 8,8 0 0 0 820,275.167 L 812,275.167 z"/>
    <line style="fill: none; fill-opacity:0; stroke-width: 2; stroke: #bfbfbf" x1="28" y1="240" x2="812" y2="240"/>
    <line style="fill: none; fill-opacity:0; stroke-width: 2; stroke: #bfbfbf" x1="28" y1="283.167" x2="812" y2="283.167"/>
    <path style="fill: none; fill-opacity:0; stroke-width: 2; stroke: #bfbfbf" d="M 28,240 A 8,8 0 0 0 20,248"/>
    <path style="fill: none; fill-opacity:0; stroke-width: 2; stroke: #bfbfbf" d="M 820,248 A 8,8 0 0 0 812,240"/>
    <line style="fill: none; fill-opacity:0; stroke-width: 2; stroke: #bfbfbf" x1="20" y1="248" x2="20" y2="275.167"/>
    <line style="fill: none; fill-opacity:0; stroke-width: 2; stroke: #bfbfbf" x1="820" y1="248" x2="820" y2="275.167"/>
    <path style="fill: none; fill-opacity:0; stroke-width: 2; stroke: #bfbfbf" d="M 20,275.167 A 8,8 0 0 0 28,283.167"/>
    <path style="fill: none; fill-opacity:0; stroke-width: 2; stroke: #bfbfbf" d="M 812,283.167 A 8,8 0 0 0 820,275.167"/>
    <text font-size="16.9333" style="fill: #000000;text-anchor:start;font-family:sans-serif;font-style:normal;font-weight:normal" x="19" y="266.75">
      <tspan x="19" y="266.75">    2 months: 2</tspan>
    </text>
  </g>
  <g>
    <rect style="fill: #d8e5e5" x="28" y="320" width="784" height="43.1667"/>
    <path style="fill: #d8e5e5" d="M 28,320 A 8,8 0 0 0 20,328 L 28,328 z"/>
    <path style="fill: #d8e5e5" d="M 820,328 A 8,8 0 0 0 812,320 L 812,328 z"/>
    <rect style="fill: #d8e5e5" x="20" y="328" width="800" height="27.1667"/>
    <path style="fill: #d8e5e5" d="M 20,355.167 A 8,8 0 0 0 28,363.167 L 28,355.167 z"/>
    <path style="fill: #d8e5e5" d="M 812,363.167 A 8,8 0 0 0 820,355.167 L 812,355.167 z"/>
    <line style="fill: none; fill-opacity:0; stroke-width: 2; stroke: #bfbfbf" x1="28" y1="320" x2="812" y2="320"/>
    <line style="fill: none; fill-opacity:0; stroke-width: 2; stroke: #bfbfbf" x1="28" y1="363.167" x2="812" y2="363.167"/>
    <path style="fill: none; fill-opacity:0; stroke-width: 2; stroke: #bfbfbf" d="M 28,320 A 8,8 0 0 0 20,328"/>
    <path style="fill: none; fill-opacity:0; stroke-width: 2; stroke: #bfbfbf" d="M 820,328 A 8,8 0 0 0 812,320"/>
    <line style="fill: none; fill-opacity:0; stroke-width: 2; stroke: #bfbfbf" x1="20" y1="328" x2="20" y2="355.167"/>
    <line style="fill: none; fill-opacity:0; stroke-width: 2; stroke: #bfbfbf" x1="820" y1="328" x2="820" y2="355.167"/>
    <path style="fill: none; fill-opacity:0; stroke-width: 2; stroke: #bfbfbf" d="M 20,355.167 A 8,8 0 0 0 28,363.167"/>
    <path style="fill: none; fill-opacity:0; stroke-width: 2; stroke: #bfbfbf" d="M 812,363.167 A 8,8 0 0 0 820,355.167"/>
    <text font-size="16.9333" style="fill: #000000;text-anchor:start;font-family:sans-serif;font-style:normal;font-weight:normal" x="19" y="346.75">
      <tspan x="19" y="346.75">    3 months: 3</tspan>
    </text>
  </g>
  <g>
    <rect style="fill: #d8e5e5" x="28" y="400" width="784" height="43.1667"/>
    <path style="fill: #d8e5e5" d="M 28,400 A 8,8 0 0 0 20,408 L 28,408 z"/>
    <path style="fill: #d8e5e5" d="M 820,408 A 8,8 0 0 0 812,400 L 812,408 z"/>
    <rect style="fill: #d8e5e5" x="20" y="408" width="800" height="27.1667"/>
    <path style="fill: #d8e5e5" d="M 20,435.167 A 8,8 0 0 0 28,443.167 L 28,435.167 z"/>
    <path style="fill: #d8e5e5" d="M 812,443.167 A 8,8 0 0 0 820,435.167 L 812,435.167 z"/>
    <line style="fill: none; fill-opacity:0; stroke-width: 2; stroke: #bfbfbf" x1="28" y1="400" x2="812" y2="400"/>
    <line style="fill: none; fill-opacity:0; stroke-width: 2; stroke: #bfbfbf" x1="28" y1="443.167" x2="812" y2="443.167"/>
    <path style="fill: none; fill-opacity:0; stroke-width: 2; stroke: #bfbfbf" d="M 28,400 A 8,8 0 0 0 20,408"/>
    <path style="fill: none; fill-opacity:0; stroke-width: 2; stroke: #bfbfbf" d="M 820,408 A 8,8 0 0 0 812,400"/>
    <line style="fill: none; fill-opacity:0; stroke-width: 2; stroke: #bfbfbf" x1="20" y1="408" x2="20" y2="435.167"/>
    <line style="fill: none; fill-opacity:0; stroke-width: 2; stroke: #bfbfbf" x1="820" y1="408" x2="820" y2="435.167"/>
    <path style="fill: none; fill-opacity:0; stroke-width: 2; stroke: #bfbfbf" d="M 20,435.167 A 8,8 0 0 0 28,443.167"/>
    <path style="fill: none; fill-opacity:0; stroke-width: 2; stroke: #bfbfbf" d="M 812,443.167 A 8,8 0 0 0 820,435.167"/>
    <text font-size="16.9333" style="fill: #000000;text-anchor:start;font-family:sans-serif;font-style:normal;font-weight:normal" x="19" y="426.75">
      <tspan x="19" y="426.75">    4 months: 5</tspan>
    </text>
  </g>
  <g>
    <rect style="fill: #d8e5e5" x="28" y="480" width="784" height="43.1667"/>
    <path style="fill: #d8e5e5" d="M 28,480 A 8,8 0 0 0 20,488 L 28,488 z"/>
    <path style="fill: #d8e5e5" d="M 820,488 A 8,8 0 0 0 812,480 L 812,488 z"/>
    <rect style="fill: #d8e5e5" x="20" y="488" width="800" height="27.1667"/>
    <path style="fill: #d8e5e5" d="M 20,515.167 A 8,8 0 0 0 28,523.167 L 28,515.167 z"/>
    <path style="fill: #d8e5e5" d="M 812,523.167 A 8,8 0 0 0 820,515.167 L 812,515.167 z"/>
    <line style="fill: none; fill-opacity:0; stroke-width: 2; stroke: #bfbfbf" x1="28" y1="480" x2="812" y2="480"/>
    <line style="fill: none; fill-opacity:0; stroke-width: 2; stroke: #bfbfbf" x1="28" y1="523.167" x2="812" y2="523.167"/>
    <path style="fill: none; fill-opacity:0; stroke-width: 2; stroke: #bfbfbf" d="M 28,480 A 8,8 0 0 0 20,488"/>
    <path style="fill: none; fill-opacity:0; stroke-width: 2; stroke: #bfbfbf" d="M 820,488 A 8,8 0 0 0 812,480"/>
    <line style="fill: none; fill-opacity:0; stroke-width: 2; stroke: #bfbfbf" x1="20" y1="488" x2="20" y2="515.167"/>
    <line style="fill: none; fill-opacity:0; stroke-width: 2; stroke: #bfbfbf" x1="820" y1="488" x2="820" y2="515.167"/>
    <path style="fill: none; fill-opacity:0; stroke-width: 2; stroke: #bfbfbf" d="M 20,515.167 A 8,8 0 0 0 28,523.167"/>
    <path style="fill: none; fill-opacity:0; stroke-width: 2; stroke: #bfbfbf" d="M 812,523.167 A 8,8 0 0 0 820,515.167"/>
    <text font-size="16.9333" style="fill: #000000;text-anchor:start;font-family:sans-serif;font-style:normal;font-weight:normal" x="19" y="506.75">
      <tspan x="19" y="506.75">    5 months: 8</tspan>
    </text>
  </g>
  <image x="580" y="220" width="100" height="80" xlink:href="file:///home/mic/Desktop/didattica/fondinfo-2013/images/happy-tree-friends.svg"/>
  <image x="280" y="460" width="100" height="80" xlink:href="file:///home/mic/Desktop/didattica/fondinfo-2013/images/happy-tree-friends.svg"/>
  <image x="480" y="460" width="100" height="80" xlink:href="file:///home/mic/Desktop/didattica/fondinfo-2013/images/happy-tree-friends.svg"/>
  <image x="580" y="380" width="100" height="80" xlink:href="file:///home/mic/Desktop/didattica/fondinfo-2013/images/happy-tree-friends.svg"/>
  <image x="680" y="460" width="100" height="80" xlink:href="file:///home/mic/Desktop/didattica/fondinfo-2013/images/happy-tree-friends.svg"/>
  <g>
    <path style="fill: none; fill-opacity:0; stroke-width: 2; stroke: #7f7f7f" d="M 619.498 142.006 C 609.498,182.006 545.248,218.02 536.455,288.359"/>
    <polygon style="fill: #7f7f7f" points="535.525,295.801 531.804,285.258 536.455,288.359 541.727,286.498 "/>
    <polygon style="fill: none; fill-opacity:0; stroke-width: 2; stroke: #7f7f7f" points="535.525,295.801 531.804,285.258 536.455,288.359 541.727,286.498 "/>
  </g>
  <g>
    <path style="fill: none; fill-opacity:0; stroke-width: 2; stroke: #7f7f7f" d="M 619.52 141.918 C 609.52,181.918 442.625,217.996 433.233,368.279"/>
    <polygon style="fill: #7f7f7f" points="432.765,375.765 428.398,365.472 433.233,368.279 438.379,366.096 "/>
    <polygon style="fill: none; fill-opacity:0; stroke-width: 2; stroke: #7f7f7f" points="432.765,375.765 428.398,365.472 433.233,368.279 438.379,366.096 "/>
  </g>
  <g>
    <path style="fill: none; fill-opacity:0; stroke-width: 2; stroke: #7f7f7f" d="M 619.501 141.997 C 609.501,181.997 341.749,218.014 332.155,448.286"/>
    <polygon style="fill: #7f7f7f" points="331.843,455.78 327.263,445.58 332.155,448.286 337.254,445.996 "/>
    <polygon style="fill: none; fill-opacity:0; stroke-width: 2; stroke: #7f7f7f" points="331.843,455.78 327.263,445.58 332.155,448.286 337.254,445.996 "/>
  </g>
  <g>
    <path style="fill: none; fill-opacity:0; stroke-width: 2; stroke: #7f7f7f" d="M 619.5 141.998 C 609.5,181.998 609.5,178.002 617.139,208.556"/>
    <polygon style="fill: #7f7f7f" points="618.958,215.832 611.682,207.343 617.139,208.556 621.383,204.918 "/>
    <polygon style="fill: none; fill-opacity:0; stroke-width: 2; stroke: #7f7f7f" points="618.958,215.832 611.682,207.343 617.139,208.556 621.383,204.918 "/>
  </g>
  <g>
    <path style="fill: none; fill-opacity:0; stroke-width: 2; stroke: #7f7f7f" d="M 640.5 301.998 C 650.5,341.998 609.5,338.002 617.139,368.556"/>
    <polygon style="fill: #7f7f7f" points="618.958,375.832 611.682,367.343 617.139,368.556 621.383,364.918 "/>
    <polygon style="fill: none; fill-opacity:0; stroke-width: 2; stroke: #7f7f7f" points="618.958,375.832 611.682,367.343 617.139,368.556 621.383,364.918 "/>
  </g>
  <g>
    <path style="fill: none; fill-opacity:0; stroke-width: 2; stroke: #7f7f7f" d="M 519.5 381.998 C 509.5,421.998 509.5,418.002 517.139,448.556"/>
    <polygon style="fill: #7f7f7f" points="518.958,455.832 511.682,447.343 517.139,448.556 521.383,444.918 "/>
    <polygon style="fill: none; fill-opacity:0; stroke-width: 2; stroke: #7f7f7f" points="518.958,455.832 511.682,447.343 517.139,448.556 521.383,444.918 "/>
  </g>
  <g>
    <path style="fill: none; fill-opacity:0; stroke-width: 2; stroke: #7f7f7f" d="M 640.502 302.006 C 650.502,342.006 714.752,378.02 723.545,448.359"/>
    <polygon style="fill: #7f7f7f" points="724.475,455.801 718.273,446.498 723.545,448.359 728.196,445.258 "/>
    <polygon style="fill: none; fill-opacity:0; stroke-width: 2; stroke: #7f7f7f" points="724.475,455.801 718.273,446.498 723.545,448.359 728.196,445.258 "/>
  </g>
  <image x="380" y="380" width="100" height="80" xlink:href="file:///home/mic/Desktop/didattica/fondinfo-2013/images/happy-tree-friends.svg"/>
  <image x="480" y="300" width="100" height="80" xlink:href="file:///home/mic/Desktop/didattica/fondinfo-2013/images/happy-tree-friends.svg"/>
</svg>
