<?xml version="1.0" encoding="UTF-8" standalone="no"?>
<!DOCTYPE svg PUBLIC "-//W3C//DTD SVG 1.0//EN" "http://www.w3.org/TR/2001/PR-SVG-20010719/DTD/svg10.dtd">
<svg viewBox="19 24 702 257" xmlns="http://www.w3.org/2000/svg" xmlns:xlink="http://www.w3.org/1999/xlink">
  <g>
    <rect style="fill: #bfbfbf" x="220" y="40" width="80" height="40"/>
    <rect style="fill: none; fill-opacity:0; stroke-width: 2; stroke: #000000" x="220" y="40" width="80" height="40"/>
    <text font-size="12.8" style="fill: #000000;text-anchor:middle;font-family:sans-serif;font-style:normal;font-weight:normal" x="260" y="63.9">
      <tspan x="260" y="63.9"></tspan>
    </text>
  </g>
  <g>
    <polygon style="fill: #ffff00" points="160,40 200,60 160,80 120,60 "/>
    <polygon style="fill: none; fill-opacity:0; stroke-width: 2; stroke: #000000" points="160,40 200,60 160,80 120,60 "/>
    <text font-size="12.8" style="fill: #000000;text-anchor:middle;font-family:sans-serif;font-style:normal;font-weight:normal" x="160" y="63.9">
      <tspan x="160" y="63.9"></tspan>
    </text>
  </g>
  <g>
    <line style="fill: none; fill-opacity:0; stroke-width: 2; stroke: #000000" x1="300.977" y1="60" x2="330.264" y2="60"/>
    <polygon style="fill: #000000" points="337.764,60 327.764,65 330.264,60 327.764,55 "/>
    <polygon style="fill: none; fill-opacity:0; stroke-width: 2; stroke: #000000" points="337.764,60 327.764,65 330.264,60 327.764,55 "/>
  </g>
  <g>
    <line style="fill: none; fill-opacity:0; stroke-width: 2; stroke: #000000" x1="100" y1="60" x2="109.264" y2="60"/>
    <polygon style="fill: #000000" points="116.764,60 106.764,65 109.264,60 106.764,55 "/>
    <polygon style="fill: none; fill-opacity:0; stroke-width: 2; stroke: #000000" points="116.764,60 106.764,65 109.264,60 106.764,55 "/>
  </g>
  <g>
    <line style="fill: none; fill-opacity:0; stroke-width: 2; stroke: #000000" x1="201" y1="60" x2="210.264" y2="60"/>
    <polygon style="fill: #000000" points="217.764,60 207.764,65 210.264,60 207.764,55 "/>
    <polygon style="fill: none; fill-opacity:0; stroke-width: 2; stroke: #000000" points="217.764,60 207.764,65 210.264,60 207.764,55 "/>
  </g>
  <text font-size="12.8" style="fill: #000000;text-anchor:middle;font-family:sans-serif;font-style:normal;font-weight:normal" x="200" y="44.425">
    <tspan x="200" y="44.425">True</tspan>
  </text>
  <text font-size="12.8" style="fill: #000000;text-anchor:middle;font-family:sans-serif;font-style:normal;font-weight:normal" x="140" y="104.425">
    <tspan x="140" y="104.425">False</tspan>
  </text>
  <g>
    <path style="fill: none; fill-opacity:0; stroke-width: 2; stroke: #000000" d="M 160 80 C 160,120 319.992,140 320.428,69.7359"/>
    <polygon style="fill: #000000" points="320.474,62.236 325.412,72.2668 320.428,69.7359 315.413,72.2048 "/>
    <polygon style="fill: none; fill-opacity:0; stroke-width: 2; stroke: #000000" points="320.474,62.236 325.412,72.2668 320.428,69.7359 315.413,72.2048 "/>
  </g>
  <text font-size="27.0933" style="fill: #ff0000;text-anchor:middle;font-family:sans-serif;font-style:normal;font-weight:normal" x="60" y="49.375">
    <tspan x="60" y="49.375">if</tspan>
  </text>
  <g>
    <rect style="fill: #bfbfbf" x="220" y="180" width="80" height="40"/>
    <rect style="fill: none; fill-opacity:0; stroke-width: 2; stroke: #000000" x="220" y="180" width="80" height="40"/>
    <text font-size="12.8" style="fill: #000000;text-anchor:middle;font-family:sans-serif;font-style:normal;font-weight:normal" x="260" y="203.9">
      <tspan x="260" y="203.9"></tspan>
    </text>
  </g>
  <g>
    <polygon style="fill: #ffff00" points="160,180 200,200 160,220 120,200 "/>
    <polygon style="fill: none; fill-opacity:0; stroke-width: 2; stroke: #000000" points="160,180 200,200 160,220 120,200 "/>
    <text font-size="12.8" style="fill: #000000;text-anchor:middle;font-family:sans-serif;font-style:normal;font-weight:normal" x="160" y="203.9">
      <tspan x="160" y="203.9"></tspan>
    </text>
  </g>
  <g>
    <line style="fill: none; fill-opacity:0; stroke-width: 2; stroke: #000000" x1="300.977" y1="200" x2="330.264" y2="200"/>
    <polygon style="fill: #000000" points="337.764,200 327.764,205 330.264,200 327.764,195 "/>
    <polygon style="fill: none; fill-opacity:0; stroke-width: 2; stroke: #000000" points="337.764,200 327.764,205 330.264,200 327.764,195 "/>
  </g>
  <g>
    <line style="fill: none; fill-opacity:0; stroke-width: 2; stroke: #000000" x1="100" y1="200" x2="109.264" y2="200"/>
    <polygon style="fill: #000000" points="116.764,200 106.764,205 109.264,200 106.764,195 "/>
    <polygon style="fill: none; fill-opacity:0; stroke-width: 2; stroke: #000000" points="116.764,200 106.764,205 109.264,200 106.764,195 "/>
  </g>
  <g>
    <line style="fill: none; fill-opacity:0; stroke-width: 2; stroke: #000000" x1="201" y1="200" x2="210.264" y2="200"/>
    <polygon style="fill: #000000" points="217.764,200 207.764,205 210.264,200 207.764,195 "/>
    <polygon style="fill: none; fill-opacity:0; stroke-width: 2; stroke: #000000" points="217.764,200 207.764,205 210.264,200 207.764,195 "/>
  </g>
  <text font-size="12.8" style="fill: #000000;text-anchor:middle;font-family:sans-serif;font-style:normal;font-weight:normal" x="200" y="184.425">
    <tspan x="200" y="184.425">True</tspan>
  </text>
  <text font-size="12.8" style="fill: #000000;text-anchor:middle;font-family:sans-serif;font-style:normal;font-weight:normal" x="140" y="244.425">
    <tspan x="140" y="244.425">False</tspan>
  </text>
  <g>
    <path style="fill: none; fill-opacity:0; stroke-width: 2; stroke: #000000" d="M 160 220 C 160,260 220,260 220,260"/>
    <polygon style="fill: #000000" points="220,260 210,265 212.5,260 210,255 "/>
    <polygon style="fill: none; fill-opacity:0; stroke-width: 2; stroke: #000000" points="220,260 210,265 212.5,260 210,255 "/>
  </g>
  <text font-size="12.8" style="fill: #000000;text-anchor:middle;font-family:sans-serif;font-style:normal;font-weight:normal" x="140" y="244.425">
    <tspan x="140" y="244.425"></tspan>
  </text>
  <text font-size="27.0933" style="fill: #ff0000;text-anchor:middle;font-family:sans-serif;font-style:normal;font-weight:normal" x="60" y="189.375">
    <tspan x="60" y="189.375">if-else</tspan>
  </text>
  <g>
    <rect style="fill: #bfbfbf" x="220" y="240" width="80" height="40"/>
    <rect style="fill: none; fill-opacity:0; stroke-width: 2; stroke: #000000" x="220" y="240" width="80" height="40"/>
    <text font-size="12.8" style="fill: #000000;text-anchor:middle;font-family:sans-serif;font-style:normal;font-weight:normal" x="260" y="263.9">
      <tspan x="260" y="263.9"></tspan>
    </text>
  </g>
  <g>
    <path style="fill: none; fill-opacity:0; stroke-width: 2; stroke: #000000" d="M 300 260 C 300,260 320,260 320.409,209.736"/>
    <polygon style="fill: #000000" points="320.47,202.236 325.389,212.276 320.409,209.736 315.389,212.195 "/>
    <polygon style="fill: none; fill-opacity:0; stroke-width: 2; stroke: #000000" points="320.47,202.236 325.389,212.276 320.409,209.736 315.389,212.195 "/>
  </g>
  <text font-size="27.0933" style="fill: #ff0000;text-anchor:middle;font-family:sans-serif;font-style:normal;font-weight:normal" x="440" y="129.375">
    <tspan x="440" y="129.375">while</tspan>
  </text>
  <g>
    <rect style="fill: #bfbfbf" x="640" y="140" width="80" height="40"/>
    <rect style="fill: none; fill-opacity:0; stroke-width: 2; stroke: #000000" x="640" y="140" width="80" height="40"/>
    <text font-size="12.8" style="fill: #000000;text-anchor:middle;font-family:sans-serif;font-style:normal;font-weight:normal" x="680" y="163.9">
      <tspan x="680" y="163.9"></tspan>
    </text>
  </g>
  <g>
    <polygon style="fill: #ffff00" points="560,140 600,160 560,180 520,160 "/>
    <polygon style="fill: none; fill-opacity:0; stroke-width: 2; stroke: #000000" points="560,140 600,160 560,180 520,160 "/>
    <text font-size="12.8" style="fill: #000000;text-anchor:middle;font-family:sans-serif;font-style:normal;font-weight:normal" x="560" y="163.9">
      <tspan x="560" y="163.9"></tspan>
    </text>
  </g>
  <g>
    <line style="fill: none; fill-opacity:0; stroke-width: 2; stroke: #000000" x1="480" y1="160" x2="509.264" y2="160"/>
    <polygon style="fill: #000000" points="516.764,160 506.764,165 509.264,160 506.764,155 "/>
    <polygon style="fill: none; fill-opacity:0; stroke-width: 2; stroke: #000000" points="516.764,160 506.764,165 509.264,160 506.764,155 "/>
  </g>
  <g>
    <line style="fill: none; fill-opacity:0; stroke-width: 2; stroke: #000000" x1="601" y1="160" x2="630.264" y2="160"/>
    <polygon style="fill: #000000" points="637.764,160 627.764,165 630.264,160 627.764,155 "/>
    <polygon style="fill: none; fill-opacity:0; stroke-width: 2; stroke: #000000" points="637.764,160 627.764,165 630.264,160 627.764,155 "/>
  </g>
  <text font-size="12.8" style="fill: #000000;text-anchor:middle;font-family:sans-serif;font-style:normal;font-weight:normal" x="600" y="144.425">
    <tspan x="600" y="144.425">True</tspan>
  </text>
  <text font-size="12.8" style="fill: #000000;text-anchor:middle;font-family:sans-serif;font-style:normal;font-weight:normal" x="540" y="204.425">
    <tspan x="540" y="204.425">False</tspan>
  </text>
  <g>
    <path style="fill: none; fill-opacity:0; stroke-width: 2; stroke: #000000" d="M 680 138.996 C 680,98.9964 500,100 499.581,150.264"/>
    <polygon style="fill: #000000" points="499.519,157.764 494.602,147.723 499.581,150.264 504.602,147.806 "/>
    <polygon style="fill: none; fill-opacity:0; stroke-width: 2; stroke: #000000" points="499.519,157.764 494.602,147.723 499.581,150.264 504.602,147.806 "/>
  </g>
  <g>
    <line style="fill: none; fill-opacity:0; stroke-width: 2; stroke: #000000" x1="560" y1="181" x2="560" y2="210.264"/>
    <polygon style="fill: #000000" points="560,217.764 555,207.764 560,210.264 565,207.764 "/>
    <polygon style="fill: none; fill-opacity:0; stroke-width: 2; stroke: #000000" points="560,217.764 555,207.764 560,210.264 565,207.764 "/>
  </g>
</svg>
