<?xml version="1.0" encoding="UTF-8" standalone="no"?>
<!DOCTYPE svg PUBLIC "-//W3C//DTD SVG 1.0//EN" "http://www.w3.org/TR/2001/PR-SVG-20010719/DTD/svg10.dtd">
<svg width="12cm" height="21cm" viewBox="258 38 223 403" xmlns="http://www.w3.org/2000/svg" xmlns:xlink="http://www.w3.org/1999/xlink">
  <g>
    <path style="fill: #90ee90" d="M 290 40 L 330,40 C 335.523,40 340,48.9543 340,60 C 340,71.0457 335.523,80 330,80 L 290,80 C 284.477,80 280,71.0457 280,60 C 280,48.9543 284.477,40 290,40z"/>
    <path style="fill: none; fill-opacity:0; stroke-width: 2; stroke: #000000" d="M 290 40 L 330,40 C 335.523,40 340,48.9543 340,60 C 340,71.0457 335.523,80 330,80 L 290,80 C 284.477,80 280,71.0457 280,60 C 280,48.9543 284.477,40 290,40"/>
    <text font-size="12.8" style="fill: #000000;text-anchor:middle;font-family:sans-serif;font-style:normal;font-weight:normal" x="310" y="64">
      <tspan x="310" y="64">Start</tspan>
    </text>
  </g>
  <g>
    <rect style="fill: #bfbfbf" x="260" y="160" width="100" height="40"/>
    <rect style="fill: none; fill-opacity:0; stroke-width: 2; stroke: #000000" x="260" y="160" width="100" height="40"/>
    <text font-size="12.8" style="fill: #000000;text-anchor:middle;font-family:sans-serif;font-style:normal;font-weight:normal" x="310" y="175.9">
      <tspan x="310" y="175.9">total = 0</tspan>
      <tspan x="310" y="191.9">count = 1</tspan>
    </text>
  </g>
  <g>
    <polygon style="fill: #add8e6" points="274.559,100 360,100 345.441,140 260,140 "/>
    <polygon style="fill: none; fill-opacity:0; stroke-width: 2; stroke-dasharray: 10; stroke: #000000" points="274.559,100 360,100 345.441,140 260,140 "/>
    <text font-size="12.8" style="fill: #000000;text-anchor:middle;font-family:sans-serif;font-style:normal;font-weight:normal" x="310" y="123.9">
      <tspan x="310" y="123.9">n ?</tspan>
    </text>
  </g>
  <g>
    <line style="fill: none; fill-opacity:0; stroke-width: 2; stroke: #000000" x1="310" y1="80" x2="310" y2="89.2874"/>
    <polygon style="fill: #000000" points="310,96.7874 305,86.7874 310,89.2874 315,86.7874 "/>
    <polygon style="fill: none; fill-opacity:0; stroke-width: 2; stroke: #000000" points="310,96.7874 305,86.7874 310,89.2874 315,86.7874 "/>
  </g>
  <g>
    <line style="fill: none; fill-opacity:0; stroke-width: 2; stroke: #000000" x1="310" y1="140.991" x2="310" y2="149.273"/>
    <polygon style="fill: #000000" points="310,156.773 305,146.773 310,149.273 315,146.773 "/>
    <polygon style="fill: none; fill-opacity:0; stroke-width: 2; stroke: #000000" points="310,156.773 305,146.773 310,149.273 315,146.773 "/>
  </g>
  <g>
    <polygon style="fill: #ffff00" points="310,240 360,280 310,320 260,280 "/>
    <polygon style="fill: none; fill-opacity:0; stroke-width: 2; stroke: #000000" points="310,240 360,280 310,320 260,280 "/>
    <text font-size="12.8" style="fill: #000000;text-anchor:middle;font-family:sans-serif;font-style:normal;font-weight:normal" x="310" y="283.9">
      <tspan x="310" y="283.9">count &lt;= n</tspan>
    </text>
  </g>
  <g>
    <rect style="fill: #bfbfbf" x="379.5" y="260" width="100.5" height="40"/>
    <rect style="fill: none; fill-opacity:0; stroke-width: 2; stroke: #000000" x="379.5" y="260" width="100.5" height="40"/>
    <text font-size="12.8" style="fill: #000000;text-anchor:middle;font-family:sans-serif;font-style:normal;font-weight:normal" x="429.75" y="275.9">
      <tspan x="429.75" y="275.9">total += count</tspan>
      <tspan x="429.75" y="291.9">count += 1</tspan>
    </text>
  </g>
  <g>
    <line style="fill: none; fill-opacity:0; stroke-width: 2; stroke: #000000" x1="361" y1="280" x2="368.778" y2="280"/>
    <polygon style="fill: #000000" points="376.278,280 366.278,285 368.778,280 366.278,275 "/>
    <polygon style="fill: none; fill-opacity:0; stroke-width: 2; stroke: #000000" points="376.278,280 366.278,285 368.778,280 366.278,275 "/>
  </g>
  <g>
    <line style="fill: none; fill-opacity:0; stroke-width: 2; stroke: #000000" x1="310" y1="201.002" x2="310" y2="229.264"/>
    <polygon style="fill: #000000" points="310,236.764 305,226.764 310,229.264 315,226.764 "/>
    <polygon style="fill: none; fill-opacity:0; stroke-width: 2; stroke: #000000" points="310,236.764 305,226.764 310,229.264 315,226.764 "/>
  </g>
  <g>
    <polygon style="fill: #ffc0cb" points="274.559,340 359.999,340 345.44,380 260,380 "/>
    <polygon style="fill: none; fill-opacity:0; stroke-width: 2; stroke: #000000" points="274.559,340 359.999,340 345.44,380 260,380 "/>
    <text font-size="12.8" style="fill: #000000;text-anchor:middle;font-family:sans-serif;font-style:normal;font-weight:normal" x="310" y="363.9">
      <tspan x="310" y="363.9">total</tspan>
    </text>
  </g>
  <g>
    <line style="fill: none; fill-opacity:0; stroke-width: 2; stroke: #000000" x1="310" y1="321" x2="310" y2="329.287"/>
    <polygon style="fill: #000000" points="310,336.787 305,326.787 310,329.287 315,326.787 "/>
    <polygon style="fill: none; fill-opacity:0; stroke-width: 2; stroke: #000000" points="310,336.787 305,326.787 310,329.287 315,326.787 "/>
  </g>
  <g>
    <path style="fill: #a52a2a" d="M 290 400 L 330,400 C 335.523,400 340,408.954 340,420 C 340,431.046 335.523,440 330,440 L 290,440 C 284.477,440 280,431.046 280,420 C 280,408.954 284.477,400 290,400z"/>
    <path style="fill: none; fill-opacity:0; stroke-width: 2; stroke: #000000" d="M 290 400 L 330,400 C 335.523,400 340,408.954 340,420 C 340,431.046 335.523,440 330,440 L 290,440 C 284.477,440 280,431.046 280,420 C 280,408.954 284.477,400 290,400"/>
    <text font-size="12.8" style="fill: #000000;text-anchor:middle;font-family:sans-serif;font-style:normal;font-weight:normal" x="310" y="424">
      <tspan x="310" y="424">Stop</tspan>
    </text>
  </g>
  <g>
    <line style="fill: none; fill-opacity:0; stroke-width: 2; stroke: #000000" x1="310" y1="380.991" x2="310" y2="389.273"/>
    <polygon style="fill: #000000" points="310,396.773 305,386.773 310,389.273 315,386.773 "/>
    <polygon style="fill: none; fill-opacity:0; stroke-width: 2; stroke: #000000" points="310,396.773 305,386.773 310,389.273 315,386.773 "/>
  </g>
  <text font-size="12.8" style="fill: #000000;text-anchor:middle;font-family:sans-serif;font-style:normal;font-weight:normal" x="360" y="260">
    <tspan x="360" y="260">True</tspan>
  </text>
  <text font-size="12.8" style="fill: #000000;text-anchor:middle;font-family:sans-serif;font-style:normal;font-weight:normal" x="280" y="320">
    <tspan x="280" y="320">False</tspan>
  </text>
  <g>
    <path style="fill: none; fill-opacity:0; stroke-width: 2; stroke: #000000" d="M 429.75 260 C 429.75,220 390,220.001 319.736,220.001"/>
    <polygon style="fill: #000000" points="312.236,220.001 322.236,215.001 319.736,220.001 322.236,225.001 "/>
    <polygon style="fill: none; fill-opacity:0; stroke-width: 2; stroke: #000000" points="312.236,220.001 322.236,215.001 319.736,220.001 322.236,225.001 "/>
  </g>
</svg>
